<mxfile host="app.diagrams.net" modified="2020-08-18T07:13:30.558Z" agent="5.0 (Windows NT 6.2; Win64; x64) AppleWebKit/537.36 (KHTML, like Gecko) Chrome/84.0.4147.125 Safari/537.36" etag="HcMr7ECCOvwcrsBoaT7Q" version="13.6.2" type="github">
  <diagram id="HZ2btel0L0PJrFDWXvJT" name="Page-1">
    <mxGraphModel dx="1188" dy="642" grid="1" gridSize="10" guides="1" tooltips="1" connect="1" arrows="1" fold="1" page="1" pageScale="1" pageWidth="827" pageHeight="1169" math="0" shadow="0">
      <root>
        <mxCell id="0" />
        <mxCell id="1" parent="0" />
        <mxCell id="HF_GWmNbyI7-O5OsoXKc-2" value="" style="shape=mxgraph.signs.transportation.truck_4;html=1;pointerEvents=1;fillColor=#000000;strokeColor=none;verticalLabelPosition=bottom;verticalAlign=top;align=center;" vertex="1" parent="1">
          <mxGeometry x="580" y="330" width="99" height="33" as="geometry" />
        </mxCell>
        <mxCell id="HF_GWmNbyI7-O5OsoXKc-3" value="" style="endArrow=none;html=1;" edge="1" parent="1">
          <mxGeometry width="50" height="50" relative="1" as="geometry">
            <mxPoint x="210" y="320" as="sourcePoint" />
            <mxPoint x="810" y="320" as="targetPoint" />
          </mxGeometry>
        </mxCell>
        <mxCell id="HF_GWmNbyI7-O5OsoXKc-4" value="" style="endArrow=none;html=1;" edge="1" parent="1">
          <mxGeometry width="50" height="50" relative="1" as="geometry">
            <mxPoint x="210" y="370" as="sourcePoint" />
            <mxPoint x="810" y="370" as="targetPoint" />
          </mxGeometry>
        </mxCell>
        <mxCell id="HF_GWmNbyI7-O5OsoXKc-5" value="" style="endArrow=none;html=1;" edge="1" parent="1">
          <mxGeometry width="50" height="50" relative="1" as="geometry">
            <mxPoint x="210" y="320" as="sourcePoint" />
            <mxPoint x="210" y="70" as="targetPoint" />
          </mxGeometry>
        </mxCell>
        <mxCell id="HF_GWmNbyI7-O5OsoXKc-6" value="" style="endArrow=none;html=1;" edge="1" parent="1">
          <mxGeometry width="50" height="50" relative="1" as="geometry">
            <mxPoint x="210" y="620" as="sourcePoint" />
            <mxPoint x="210" y="370" as="targetPoint" />
          </mxGeometry>
        </mxCell>
        <mxCell id="HF_GWmNbyI7-O5OsoXKc-7" value="" style="endArrow=none;dashed=1;html=1;dashPattern=1 3;strokeWidth=2;" edge="1" parent="1">
          <mxGeometry width="50" height="50" relative="1" as="geometry">
            <mxPoint x="160" y="320" as="sourcePoint" />
            <mxPoint x="160" y="70" as="targetPoint" />
          </mxGeometry>
        </mxCell>
        <mxCell id="HF_GWmNbyI7-O5OsoXKc-8" value="" style="endArrow=none;dashed=1;html=1;dashPattern=1 3;strokeWidth=2;" edge="1" parent="1">
          <mxGeometry width="50" height="50" relative="1" as="geometry">
            <mxPoint x="160" y="625" as="sourcePoint" />
            <mxPoint x="160" y="375" as="targetPoint" />
          </mxGeometry>
        </mxCell>
        <mxCell id="HF_GWmNbyI7-O5OsoXKc-9" value="" style="endArrow=none;html=1;" edge="1" parent="1">
          <mxGeometry width="50" height="50" relative="1" as="geometry">
            <mxPoint x="110" y="610" as="sourcePoint" />
            <mxPoint x="110" y="70" as="targetPoint" />
          </mxGeometry>
        </mxCell>
        <mxCell id="HF_GWmNbyI7-O5OsoXKc-13" value="" style="curved=1;endArrow=classic;html=1;dashed=1;fillColor=#dae8fc;strokeColor=#6c8ebf;" edge="1" parent="1">
          <mxGeometry width="50" height="50" relative="1" as="geometry">
            <mxPoint x="580" y="350" as="sourcePoint" />
            <mxPoint x="140" y="120" as="targetPoint" />
            <Array as="points">
              <mxPoint x="390" y="350" />
              <mxPoint x="180" y="350" />
              <mxPoint x="130" y="290" />
            </Array>
          </mxGeometry>
        </mxCell>
        <mxCell id="HF_GWmNbyI7-O5OsoXKc-14" value="" style="verticalLabelPosition=bottom;verticalAlign=top;html=1;shape=mxgraph.basic.star;fillColor=#b1ddf0;strokeColor=#10739e;" vertex="1" parent="1">
          <mxGeometry x="490" y="290" width="20" height="22" as="geometry" />
        </mxCell>
        <mxCell id="HF_GWmNbyI7-O5OsoXKc-19" value="" style="shape=lineEllipse;perimeter=ellipsePerimeter;whiteSpace=wrap;html=1;backgroundOutline=1;" vertex="1" parent="1">
          <mxGeometry x="630" y="330" width="20" height="20" as="geometry" />
        </mxCell>
        <mxCell id="HF_GWmNbyI7-O5OsoXKc-20" value="" style="verticalLabelPosition=bottom;verticalAlign=top;html=1;shape=mxgraph.basic.star;fillColor=#b1ddf0;strokeColor=#10739e;" vertex="1" parent="1">
          <mxGeometry x="90" y="290" width="20" height="22" as="geometry" />
        </mxCell>
        <mxCell id="HF_GWmNbyI7-O5OsoXKc-21" value="" style="verticalLabelPosition=bottom;verticalAlign=top;html=1;shape=mxgraph.basic.star;fillColor=#b1ddf0;strokeColor=#10739e;" vertex="1" parent="1">
          <mxGeometry x="90" y="380" width="20" height="22" as="geometry" />
        </mxCell>
        <mxCell id="HF_GWmNbyI7-O5OsoXKc-24" value="" style="endArrow=none;dashed=1;html=1;entryX=0;entryY=0.5;entryDx=0;entryDy=0;exitX=0.5;exitY=0.76;exitDx=0;exitDy=0;exitPerimeter=0;fillColor=#e51400;strokeColor=#B20000;" edge="1" parent="1" source="HF_GWmNbyI7-O5OsoXKc-14" target="HF_GWmNbyI7-O5OsoXKc-19">
          <mxGeometry width="50" height="50" relative="1" as="geometry">
            <mxPoint x="520" y="312" as="sourcePoint" />
            <mxPoint x="570" y="262" as="targetPoint" />
          </mxGeometry>
        </mxCell>
        <mxCell id="HF_GWmNbyI7-O5OsoXKc-26" value="提供纵向修正" style="text;html=1;strokeColor=none;fillColor=none;align=center;verticalAlign=middle;whiteSpace=wrap;rounded=0;" vertex="1" parent="1">
          <mxGeometry x="550" y="290" width="80" height="20" as="geometry" />
        </mxCell>
        <mxCell id="HF_GWmNbyI7-O5OsoXKc-27" value="转弯位置修正&lt;br&gt;可单个，可多个运行" style="text;html=1;strokeColor=none;fillColor=none;align=center;verticalAlign=middle;whiteSpace=wrap;rounded=0;" vertex="1" parent="1">
          <mxGeometry x="10" y="330" width="100" height="20" as="geometry" />
        </mxCell>
        <mxCell id="HF_GWmNbyI7-O5OsoXKc-29" value="" style="shape=lineEllipse;perimeter=ellipsePerimeter;whiteSpace=wrap;html=1;backgroundOutline=1;" vertex="1" parent="1">
          <mxGeometry x="178" y="326" width="20" height="20" as="geometry" />
        </mxCell>
        <mxCell id="HF_GWmNbyI7-O5OsoXKc-31" value="" style="endArrow=none;dashed=1;html=1;exitX=1;exitY=0.367;exitDx=0;exitDy=0;exitPerimeter=0;fillColor=#e51400;strokeColor=#B20000;" edge="1" parent="1" source="HF_GWmNbyI7-O5OsoXKc-20">
          <mxGeometry width="50" height="50" relative="1" as="geometry">
            <mxPoint x="110" y="310" as="sourcePoint" />
            <mxPoint x="180" y="330" as="targetPoint" />
          </mxGeometry>
        </mxCell>
        <mxCell id="HF_GWmNbyI7-O5OsoXKc-32" value="" style="endArrow=none;dashed=1;html=1;exitX=0.5;exitY=0.76;exitDx=0;exitDy=0;exitPerimeter=0;fillColor=#e51400;strokeColor=#B20000;entryX=0;entryY=1;entryDx=0;entryDy=0;" edge="1" parent="1" target="HF_GWmNbyI7-O5OsoXKc-29">
          <mxGeometry width="50" height="50" relative="1" as="geometry">
            <mxPoint x="110" y="390" as="sourcePoint" />
            <mxPoint x="180" y="410" as="targetPoint" />
          </mxGeometry>
        </mxCell>
        <mxCell id="HF_GWmNbyI7-O5OsoXKc-33" value="" style="shape=mxgraph.signs.transportation.truck_4;html=1;pointerEvents=1;fillColor=#000000;strokeColor=none;verticalLabelPosition=bottom;verticalAlign=top;align=center;" vertex="1" parent="1">
          <mxGeometry x="423.5" y="759" width="99" height="33" as="geometry" />
        </mxCell>
        <mxCell id="HF_GWmNbyI7-O5OsoXKc-34" value="" style="verticalLabelPosition=bottom;verticalAlign=top;html=1;shape=mxgraph.basic.star;fillColor=#b1ddf0;strokeColor=#10739e;" vertex="1" parent="1">
          <mxGeometry x="300" y="710" width="20" height="22" as="geometry" />
        </mxCell>
        <mxCell id="HF_GWmNbyI7-O5OsoXKc-35" value="" style="verticalLabelPosition=bottom;verticalAlign=top;html=1;shape=mxgraph.basic.star;fillColor=#b1ddf0;strokeColor=#10739e;" vertex="1" parent="1">
          <mxGeometry x="300" y="1032" width="20" height="22" as="geometry" />
        </mxCell>
        <mxCell id="HF_GWmNbyI7-O5OsoXKc-36" value="" style="verticalLabelPosition=bottom;verticalAlign=top;html=1;shape=mxgraph.basic.star;fillColor=#b1ddf0;strokeColor=#10739e;" vertex="1" parent="1">
          <mxGeometry x="619.5" y="1032" width="20" height="22" as="geometry" />
        </mxCell>
        <mxCell id="HF_GWmNbyI7-O5OsoXKc-37" value="" style="verticalLabelPosition=bottom;verticalAlign=top;html=1;shape=mxgraph.basic.star;fillColor=#b1ddf0;strokeColor=#10739e;" vertex="1" parent="1">
          <mxGeometry x="610" y="710" width="20" height="22" as="geometry" />
        </mxCell>
        <mxCell id="HF_GWmNbyI7-O5OsoXKc-40" value="" style="rounded=0;whiteSpace=wrap;html=1;fillColor=none;dashed=1;" vertex="1" parent="1">
          <mxGeometry x="413" y="732" width="120" height="60" as="geometry" />
        </mxCell>
        <mxCell id="HF_GWmNbyI7-O5OsoXKc-48" value="" style="shape=lineEllipse;perimeter=ellipsePerimeter;whiteSpace=wrap;html=1;backgroundOutline=1;" vertex="1" parent="1">
          <mxGeometry x="450" y="771.5" width="10" height="8" as="geometry" />
        </mxCell>
        <mxCell id="HF_GWmNbyI7-O5OsoXKc-49" value="" style="shape=lineEllipse;perimeter=ellipsePerimeter;whiteSpace=wrap;html=1;backgroundOutline=1;" vertex="1" parent="1">
          <mxGeometry x="500" y="771.5" width="10" height="8" as="geometry" />
        </mxCell>
        <mxCell id="HF_GWmNbyI7-O5OsoXKc-52" value="" style="shape=mxgraph.signs.transportation.truck_4;html=1;pointerEvents=1;fillColor=#000000;strokeColor=none;verticalLabelPosition=bottom;verticalAlign=top;align=center;" vertex="1" parent="1">
          <mxGeometry x="423.5" y="819" width="99" height="33" as="geometry" />
        </mxCell>
        <mxCell id="HF_GWmNbyI7-O5OsoXKc-53" value="" style="rounded=0;whiteSpace=wrap;html=1;fillColor=none;dashed=1;" vertex="1" parent="1">
          <mxGeometry x="413" y="792" width="120" height="60" as="geometry" />
        </mxCell>
        <mxCell id="HF_GWmNbyI7-O5OsoXKc-54" value="" style="shape=lineEllipse;perimeter=ellipsePerimeter;whiteSpace=wrap;html=1;backgroundOutline=1;" vertex="1" parent="1">
          <mxGeometry x="450" y="831.5" width="10" height="8" as="geometry" />
        </mxCell>
        <mxCell id="HF_GWmNbyI7-O5OsoXKc-55" value="" style="shape=lineEllipse;perimeter=ellipsePerimeter;whiteSpace=wrap;html=1;backgroundOutline=1;" vertex="1" parent="1">
          <mxGeometry x="500" y="831.5" width="10" height="8" as="geometry" />
        </mxCell>
        <mxCell id="HF_GWmNbyI7-O5OsoXKc-60" value="" style="shape=mxgraph.signs.transportation.truck_4;html=1;pointerEvents=1;fillColor=#000000;strokeColor=none;verticalLabelPosition=bottom;verticalAlign=top;align=center;" vertex="1" parent="1">
          <mxGeometry x="423.5" y="879" width="99" height="33" as="geometry" />
        </mxCell>
        <mxCell id="HF_GWmNbyI7-O5OsoXKc-61" value="" style="rounded=0;whiteSpace=wrap;html=1;fillColor=none;dashed=1;" vertex="1" parent="1">
          <mxGeometry x="413" y="852" width="120" height="60" as="geometry" />
        </mxCell>
        <mxCell id="HF_GWmNbyI7-O5OsoXKc-62" value="" style="shape=lineEllipse;perimeter=ellipsePerimeter;whiteSpace=wrap;html=1;backgroundOutline=1;" vertex="1" parent="1">
          <mxGeometry x="450" y="891.5" width="10" height="8" as="geometry" />
        </mxCell>
        <mxCell id="HF_GWmNbyI7-O5OsoXKc-63" value="" style="shape=lineEllipse;perimeter=ellipsePerimeter;whiteSpace=wrap;html=1;backgroundOutline=1;" vertex="1" parent="1">
          <mxGeometry x="500" y="891.5" width="10" height="8" as="geometry" />
        </mxCell>
        <mxCell id="HF_GWmNbyI7-O5OsoXKc-64" value="" style="shape=mxgraph.signs.transportation.truck_4;html=1;pointerEvents=1;fillColor=#000000;strokeColor=none;verticalLabelPosition=bottom;verticalAlign=top;align=center;" vertex="1" parent="1">
          <mxGeometry x="424.5" y="939" width="99" height="33" as="geometry" />
        </mxCell>
        <mxCell id="HF_GWmNbyI7-O5OsoXKc-65" value="" style="rounded=0;whiteSpace=wrap;html=1;fillColor=none;dashed=1;" vertex="1" parent="1">
          <mxGeometry x="414" y="912" width="120" height="60" as="geometry" />
        </mxCell>
        <mxCell id="HF_GWmNbyI7-O5OsoXKc-66" value="" style="shape=lineEllipse;perimeter=ellipsePerimeter;whiteSpace=wrap;html=1;backgroundOutline=1;" vertex="1" parent="1">
          <mxGeometry x="451" y="951.5" width="10" height="8" as="geometry" />
        </mxCell>
        <mxCell id="HF_GWmNbyI7-O5OsoXKc-67" value="" style="shape=lineEllipse;perimeter=ellipsePerimeter;whiteSpace=wrap;html=1;backgroundOutline=1;" vertex="1" parent="1">
          <mxGeometry x="501" y="951.5" width="10" height="8" as="geometry" />
        </mxCell>
        <mxCell id="HF_GWmNbyI7-O5OsoXKc-68" value="" style="shape=mxgraph.signs.transportation.truck_4;html=1;pointerEvents=1;fillColor=#000000;strokeColor=none;verticalLabelPosition=bottom;verticalAlign=top;align=center;" vertex="1" parent="1">
          <mxGeometry x="424.5" y="999" width="99" height="33" as="geometry" />
        </mxCell>
        <mxCell id="HF_GWmNbyI7-O5OsoXKc-69" value="" style="rounded=0;whiteSpace=wrap;html=1;fillColor=none;dashed=1;" vertex="1" parent="1">
          <mxGeometry x="414" y="972" width="120" height="60" as="geometry" />
        </mxCell>
        <mxCell id="HF_GWmNbyI7-O5OsoXKc-70" value="" style="shape=lineEllipse;perimeter=ellipsePerimeter;whiteSpace=wrap;html=1;backgroundOutline=1;" vertex="1" parent="1">
          <mxGeometry x="451" y="1011.5" width="10" height="8" as="geometry" />
        </mxCell>
        <mxCell id="HF_GWmNbyI7-O5OsoXKc-71" value="" style="shape=lineEllipse;perimeter=ellipsePerimeter;whiteSpace=wrap;html=1;backgroundOutline=1;" vertex="1" parent="1">
          <mxGeometry x="501" y="1011.5" width="10" height="8" as="geometry" />
        </mxCell>
        <mxCell id="HF_GWmNbyI7-O5OsoXKc-73" value="停车场定位初始化&lt;br&gt;岸桥下精准停车" style="text;html=1;strokeColor=none;fillColor=none;align=center;verticalAlign=middle;whiteSpace=wrap;rounded=0;" vertex="1" parent="1">
          <mxGeometry x="230" y="752" width="160" height="20" as="geometry" />
        </mxCell>
        <mxCell id="HF_GWmNbyI7-O5OsoXKc-74" value="" style="whiteSpace=wrap;html=1;aspect=fixed;fillColor=none;" vertex="1" parent="1">
          <mxGeometry x="250" y="672" width="420" height="420" as="geometry" />
        </mxCell>
      </root>
    </mxGraphModel>
  </diagram>
</mxfile>
